<?xml version="1.0" encoding="iso-8859-1"?>
<!-- Generator: Adobe Illustrator 19.0.0, SVG Export Plug-In . SVG Version: 6.00 Build 0)  -->
<svg version="1.1" id="Layer_1" xmlns="http://www.w3.org/2000/svg" xmlns:xlink="http://www.w3.org/1999/xlink" x="0px" y="0px"
	 viewBox="0 0 512 512" style="enable-background:new 0 0 512 512;" xml:space="preserve">
<g>
	<path style="fill:#38454F;" d="M185.379,384v17.655h141.241V384H476.69V101.517c0-9.754-7.901-17.655-17.655-17.655H52.966
		c-9.754,0-17.655,7.901-17.655,17.655V384H185.379z"/>
	<path style="fill:#B0B6BB;" d="M326.621,384v17.655H185.379V384H0v26.483c0,9.754,7.901,17.655,17.655,17.655h476.69
		c9.754,0,17.655-7.901,17.655-17.655V384H326.621z"/>
	<polygon style="fill:#546A79;" points="52.966,366.345 459.034,366.345 459.034,101.517 52.966,101.517 	"/>
	<polygon style="fill:#ECBA16;" points="229.517,180.966 282.483,180.966 282.483,128 229.517,128 	"/>
	<g>
		<polygon style="fill:#25AE88;" points="247.172,269.241 264.828,269.241 264.828,180.966 247.172,180.966 		"/>
		<polygon style="fill:#25AE88;" points="397.241,275.633 379.586,275.633 379.586,242.759 132.414,242.759 132.414,275.633 
			114.759,275.633 114.759,225.104 397.241,225.104 		"/>
	</g>
	<g>
		<path style="fill:#ECBA16;" d="M158.897,304.552c0,19.5-15.81,35.31-35.31,35.31s-35.31-15.81-35.31-35.31
			c0-19.5,15.81-35.31,35.31-35.31S158.897,285.052,158.897,304.552"/>
		<path style="fill:#ECBA16;" d="M291.31,304.552c0,19.5-15.81,35.31-35.31,35.31s-35.31-15.81-35.31-35.31
			c0-19.5,15.81-35.31,35.31-35.31S291.31,285.052,291.31,304.552"/>
		<path style="fill:#ECBA16;" d="M423.724,304.552c0,19.5-15.81,35.31-35.31,35.31c-19.5,0-35.31-15.81-35.31-35.31
			c0-19.5,15.81-35.31,35.31-35.31C407.914,269.241,423.724,285.052,423.724,304.552"/>
	</g>
</g>
<g>
</g>
<g>
</g>
<g>
</g>
<g>
</g>
<g>
</g>
<g>
</g>
<g>
</g>
<g>
</g>
<g>
</g>
<g>
</g>
<g>
</g>
<g>
</g>
<g>
</g>
<g>
</g>
<g>
</g>
</svg>
