<!DOCTYPE svg PUBLIC "-//W3C//DTD SVG 20010904//EN" "http://www.w3.org/TR/2001/REC-SVG-20010904/DTD/svg10.dtd">
<svg version="1.0" xmlns="http://www.w3.org/2000/svg" viewBox="0 0 9410 8960" preserveAspectRatio="xMidYMid meet">
<g id="layer101" fill="#17a2b8" stroke="none">
 <path d="M8730 8818 c-47 -56 -164 -183 -260 -282 -97 -100 -560 -593 -1030 -1096 -470 -503 -941 -1008 -1047 -1122 -191 -203 -195 -207 -271 -238 -215 -90 -408 -208 -569 -349 -93 -82 -253 -256 -253 -276 1 -9 735 -514 760 -523 6 -2 38 25 72 60 305 310 724 390 1131 218 220 -94 387 -253 486 -461 69 -144 92 -243 98 -409 6 -168 -12 -279 -66 -415 -138 -344 -487 -599 -851 -622 -204 -12 -368 41 -600 194 -210 139 -320 240 -960 882 -717 720 -972 963 -1207 1149 -467 370 -906 585 -1318 647 -133 20 -452 20 -615 0 -1118 -138 -2035 -1037 -2207 -2165 -13 -88 -17 -179 -17 -385 -1 -290 11 -396 69 -624 88 -349 273 -715 504 -1000 460 -570 1175 -918 1922 -938 228 -6 369 5 579 47 244 49 483 135 675 242 50 28 187 116 305 196 188 127 230 161 333 266 138 141 215 241 201 262 -5 8 -173 127 -373 264 l-364 250 -28 -22 c-15 -13 -87 -76 -161 -141 -207 -184 -360 -279 -564 -350 -482 -167 -999 -115 -1414 142 -331 206 -582 518 -700 870 -115 342 -118 720 -9 1057 185 573 687 1006 1279 1103 249 40 398 37 580 -15 99 -29 363 -155 497 -238 465 -287 870 -662 1657 -1531 376 -416 620 -660 741 -742 314 -212 690 -326 1080 -326 181 0 294 16 469 68 321 94 491 175 681 323 98 76 274 252 346 347 221 289 350 613 390 976 14 124 6 392 -15 494 -29 143 -108 422 -137 485 -42 91 -140 248 -223 360 -179 240 -481 477 -761 597 -44 19 -84 38 -88 43 -5 4 132 160 305 346 726 783 1042 1131 1055 1161 11 27 13 152 11 675 -3 562 -5 643 -18 645 -9 2 -51 -40 -100 -99z"/>
 </g>
</svg>