<?xml version="1.0" encoding="utf-8"?>
<!-- Generator: Adobe Illustrator 23.0.0, SVG Export Plug-In . SVG Version: 6.00 Build 0)  -->
<svg version="1.1" id="Camada_1" xmlns="http://www.w3.org/2000/svg" xmlns:xlink="http://www.w3.org/1999/xlink" x="0px" y="0px"
	 viewBox="0 0 327 327" style="enable-background:new 0 0 327 327;" xml:space="preserve">
<style type="text/css">
	.st0{opacity:0.29;}
	.st1{opacity:0;fill:#9C9B9B;}
	.st2{opacity:1.960784e-02;fill:#9A9998;}
	.st3{opacity:3.921569e-02;fill:#979696;}
	.st4{opacity:5.882353e-02;fill:#959493;}
	.st5{opacity:7.843138e-02;fill:#929191;}
	.st6{opacity:9.803922e-02;fill:#908F8E;}
	.st7{opacity:0.1176;fill:#8D8C8C;}
	.st8{opacity:0.1373;fill:#8B8A89;}
	.st9{opacity:0.1569;fill:#888787;}
	.st10{opacity:0.1765;fill:#868584;}
	.st11{opacity:0.1961;fill:#838282;}
	.st12{opacity:0.2157;fill:#81807F;}
	.st13{opacity:0.2353;fill:#7E7D7D;}
	.st14{opacity:0.2549;fill:#7C7B7A;}
	.st15{opacity:0.2745;fill:#797878;}
	.st16{opacity:0.2941;fill:#777675;}
	.st17{opacity:0.3137;fill:#747373;}
	.st18{opacity:0.3333;fill:#727170;}
	.st19{opacity:0.3529;fill:#6F6F6E;}
	.st20{opacity:0.3725;fill:#6D6C6B;}
	.st21{opacity:0.3922;fill:#6A6A69;}
	.st22{opacity:0.4118;fill:#686766;}
	.st23{opacity:0.4314;fill:#656564;}
	.st24{opacity:0.451;fill:#636261;}
	.st25{opacity:0.4706;fill:#60605F;}
	.st26{opacity:0.4902;fill:#5E5D5C;}
	.st27{opacity:0.5098;fill:#5B5B5A;}
	.st28{opacity:0.5294;fill:#595857;}
	.st29{opacity:0.549;fill:#565655;}
	.st30{opacity:0.5686;fill:#545352;}
	.st31{opacity:0.5882;fill:#515150;}
	.st32{opacity:0.6078;fill:#4F4E4D;}
	.st33{opacity:0.6275;fill:#4C4C4B;}
	.st34{opacity:0.6471;fill:#4A4948;}
	.st35{opacity:0.6667;fill:#474746;}
	.st36{opacity:0.6863;fill:#454543;}
	.st37{opacity:0.7059;fill:#424241;}
	.st38{opacity:0.7255;fill:#40403E;}
	.st39{opacity:0.7451;fill:#3D3D3C;}
	.st40{opacity:0.7647;fill:#3B3B39;}
	.st41{opacity:0.7843;fill:#383837;}
	.st42{opacity:0.8039;fill:#363634;}
	.st43{opacity:0.8235;fill:#333332;}
	.st44{opacity:0.8431;fill:#31312F;}
	.st45{opacity:0.8627;fill:#2E2E2D;}
	.st46{opacity:0.8824;fill:#2C2C2A;}
	.st47{opacity:0.902;fill:#292928;}
	.st48{opacity:0.9216;fill:#272725;}
	.st49{opacity:0.9412;fill:#242423;}
	.st50{opacity:0.9608;fill:#222220;}
	.st51{opacity:0.9804;fill:#1F1F1E;}
	.st52{fill:#1D1D1B;}
	.st53{fill:none;}
	.st54{fill:#25303F;}
	.st55{fill:#17A2B8;}
</style>
<g>
	<g>
		<path class="st54" d="M166.8,174.1c4.2-2.9,8.3-5.7,12.4-8.5c1.6,1.8,3.3,3.3,5.4,4.3c4.1,2,8.4,2.3,12.7,0.8
			c4.6-1.6,8.1-4.6,9.9-9.2c3.5-9.2-1.2-19.5-11.3-22.1c-3.7-1-7.3-0.4-10.6,1.6c-4.5,2.6-8.2,6.1-11.8,9.8
			c-4.1,4.2-8.2,8.5-12.3,12.6c-2.3,2.4-4.9,4.5-7.3,6.8c-4.4,4.3-9.2,8-14.6,11c-3.7,2.1-7.6,3.7-11.8,4.4
			c-3.1,0.6-6.2,0.5-9.4,0.3c-5.3-0.5-10.3-2-15-4.4c-5.3-2.7-9.8-6.5-13.5-11.2c-3.3-4.2-5.7-8.8-7.3-13.8
			c-0.9-2.8-1.4-5.6-1.6-8.6c-0.1-1.1-0.2-2.2-0.2-3.3c0.1-9.3,2.8-17.7,8.4-25.2c4.7-6.4,10.8-10.9,18.1-13.8
			c3.2-1.3,6.5-2.1,10-2.6c3.3-0.5,6.5-0.5,9.8-0.1c5.4,0.6,10.6,2.1,15.3,4.9c2.2,1.3,4.2,2.9,6.4,4.2c2,1.3,3.5,3.1,5.2,4.8
			c0.6,0.6,1,1.4,1.6,2.2c-4.1,2.8-8.2,5.6-12.1,8.3c-2-1.8-3.8-3.5-5.9-5c-3-2.2-6.3-3.6-9.9-4.3c-2.7-0.6-5.3-0.7-8-0.5
			c-4.5,0.4-8.7,1.8-12.5,4.4c-4.5,3-7.8,7-9.9,12c-1.2,2.8-1.8,5.7-2,8.8c-0.1,2.8,0,5.6,0.7,8.3c0.7,2.8,1.8,5.4,3.4,7.8
			c3,4.7,7.2,8.2,12.3,10.4c2.7,1.1,5.5,1.7,8.4,1.9c3.1,0.3,6.1-0.1,8.9-1.3c2.6-1.1,5.2-2.5,7.6-4.1c7.9-5.2,14.4-12,20.8-18.8
			c4.3-4.7,8.5-9.5,13-14.1c4.4-4.5,9.9-7,16.1-8.1c3.1-0.5,6.2-0.7,9.2-0.1c2.5,0.4,5.1,1.3,7.5,2.1c4.4,1.6,8.1,4.4,11.2,7.9
			c3.8,4.2,6.2,9.1,7.4,14.7c0.6,3.1,0.7,6.2,0.4,9.2c-0.2,2.5-1.1,5-1.7,7.5c-0.5,2-1.6,3.8-2.7,5.5c-3.2,5.2-7.7,9-13.1,11.7
			c-0.7,0.3-1.4,0.6-2.1,0.9c-0.6,0.2-0.6,0.5-0.2,0.9c2.9,3.1,5.8,6.2,8.6,9.3c4.4,4.7,8.7,9.5,13.1,14.2c0.2,0.2,0.4,0.7,0.4,1
			c0,6.8,0,13.7,0,20.5c0,0.1,0,0.3-0.1,0.7c-1.4-1.6-2.6-3-3.8-4.4c-0.9-1-1.9-1.8-2.8-2.8c-2.5-2.7-5-5.4-7.5-8
			c-6.9-7.4-13.9-14.8-20.8-22.3c-2.5-2.7-5-5.4-7.5-8.1c-0.3-0.3-0.7-0.6-1.2-0.8C175.1,182.3,170.5,178.9,166.8,174.1z"/>
	</g>
	<g>
		<g>
			<path class="st54" d="M240.2,244.4H28.3V76.9h211.9V244.4z M28.9,243.8h210.7V77.5H28.9V243.8z"/>
		</g>
	</g>
	<g>
		<path class="st55" d="M258.5,231.1H46.6V63.6h211.9V231.1z M47.1,230.5h210.7V64.1H47.1V230.5z"/>
	</g>
	<g>
		<path class="st54" d="M152.5,305.3l-0.3-0.3L13.8,166.5L152.3,27.9l0.3,0.3l138.5,138.5L152.5,305.3z M15,166.5L152.5,304
			l137.3-137.3L152.3,29.2L15,166.5z"/>
	</g>
	<g>
		<path class="st55" d="M174.4,299.3L174,299L35.6,160.6L174.2,22l138.8,138.8L174.4,299.3z M36.9,160.6l137.5,137.5l137.3-137.3
			L174.2,23.3L36.9,160.6z"/>
	</g>
</g>
</svg>
